<svg fill="none" height="26" viewBox="0 0 26 26" width="26" xmlns="http://www.w3.org/2000/svg"><path d="m.999999 12.3334c-.004588 1.7598.406571 3.4958 1.200001 5.0666.94076 1.8824 2.387 3.4656 4.17673 4.5724 1.78974 1.1068 3.85227 1.6935 5.95657 1.6943 1.7599.0046 3.4959-.4066 5.0667-1.2l7.6 2.5333-2.5333-7.6c.7934-1.5708 1.2046-3.3068 1.2-5.0666-.0008-2.1044-.5875-4.16689-1.6943-5.95663-1.1068-1.78973-2.6901-3.23598-4.5724-4.17673-1.5708-.79343-3.3068-1.20459-5.0667-1.2h-.6666c-2.77916.15332-5.40409 1.32635-7.37222 3.29448s-3.14116 4.59305-3.294481 7.37218z" stroke="#a672ff" stroke-linecap="round" stroke-linejoin="round" stroke-width="2"/></svg>