<svg fill="none" height="1029" viewBox="0 0 827 1029" width="827" xmlns="http://www.w3.org/2000/svg" xmlns:xlink="http://www.w3.org/1999/xlink"><filter id="a" color-interpolation-filters="sRGB" filterUnits="userSpaceOnUse" height="790.986" width="790.035" x="18.0068" y="14.2002"><feFlood flood-opacity="0" result="BackgroundImageFix"/><feBlend in="SourceGraphic" in2="BackgroundImageFix" mode="normal" result="shape"/><feGaussianBlur result="effect1_foregroundBlur" stdDeviation="50"/></filter><filter id="b" color-interpolation-filters="sRGB" filterUnits="userSpaceOnUse" height="708.341" width="823.493" x="1.75391" y="320.563"><feFlood flood-opacity="0" result="BackgroundImageFix"/><feBlend in="SourceGraphic" in2="BackgroundImageFix" mode="normal" result="shape"/><feGaussianBlur result="effect1_foregroundBlur" stdDeviation="100"/></filter><filter id="c" color-interpolation-filters="sRGB" filterUnits="userSpaceOnUse" height="690.986" width="690.035" x="68.0068" y="64.2002"><feFlood flood-opacity="0" result="BackgroundImageFix"/><feBlend in="SourceGraphic" in2="BackgroundImageFix" mode="normal" result="shape"/><feGaussianBlur result="effect1_foregroundBlur" stdDeviation="25"/></filter><linearGradient id="d" gradientUnits="userSpaceOnUse" x1="413.024" x2="413.024" y1="120.741" y2="698.646"><stop offset="0" stop-color="#7b35f1" stop-opacity="0"/><stop offset="1" stop-color="#7b35f1"/></linearGradient><linearGradient id="e" gradientUnits="userSpaceOnUse" x1="413.024" x2="413.024" y1="120.741" y2="698.646"><stop offset="0" stop-color="#a672ff" stop-opacity="0"/><stop offset="1" stop-color="#a672ff"/></linearGradient><linearGradient id="f" gradientUnits="userSpaceOnUse" x1="413.025" x2="413.025" y1="120.862" y2="698.525"><stop offset="0" stop-color="#fff" stop-opacity="0"/><stop offset=".911458" stop-color="#ccb1fb"/></linearGradient><linearGradient id="g" gradientUnits="userSpaceOnUse" x1="413.5" x2="413.5" y1="0" y2="827"><stop offset="0" stop-color="#a672ff"/><stop offset=".520833" stop-color="#61488c" stop-opacity=".479167"/><stop offset="1" stop-color="#222" stop-opacity="0"/></linearGradient><linearGradient id="h" gradientUnits="userSpaceOnUse" x1="277.516" x2="445.248" y1="428.611" y2="210.072"><stop offset=".161458" stop-color="#7b35f1"/><stop offset="1" stop-color="#a672ff"/></linearGradient><g filter="url(#a)"><path clip-rule="evenodd" d="m413.024 127.282c-155.72 0-281.957 126.44-281.957 282.411 0 155.972 126.237 282.412 281.957 282.412 155.721 0 281.957-126.44 281.957-282.412 0-155.971-126.236-282.411-281.957-282.411zm-295.017 282.411c0-163.196 132.084-295.493 295.017-295.493 162.934 0 295.017 132.297 295.017 295.493 0 163.197-132.083 295.493-295.017 295.493-162.933 0-295.017-132.296-295.017-295.493z" fill="url(#d)" fill-rule="evenodd"/></g><g filter="url(#b)"><path d="m625.246 674.733c0 85.146-94.802 154.17-211.746 154.17s-211.746-69.024-211.746-154.17 94.802-154.17 211.746-154.17 211.746 69.024 211.746 154.17z" fill="#a672ff" fill-opacity=".4"/></g><g filter="url(#c)"><path clip-rule="evenodd" d="m413.024 127.282c-155.72 0-281.957 126.44-281.957 282.411 0 155.972 126.237 282.412 281.957 282.412 155.721 0 281.957-126.44 281.957-282.412 0-155.971-126.236-282.411-281.957-282.411zm-295.017 282.411c0-163.196 132.084-295.493 295.017-295.493 162.934 0 295.017 132.297 295.017 295.493 0 163.197-132.083 295.493-295.017 295.493-162.933 0-295.017-132.296-295.017-295.493z" fill="url(#e)" fill-rule="evenodd"/></g><g clip-rule="evenodd" fill-rule="evenodd"><path d="m413.025 691.987c155.649 0 281.828-126.387 281.828-282.294 0-155.906-126.179-282.293-281.828-282.293-155.65 0-281.829 126.387-281.829 282.293 0 155.907 126.179 282.294 281.829 282.294zm0 6.538c159.254 0 288.355-129.314 288.355-288.832 0-159.517-129.101-288.831-288.355-288.831-159.255 0-288.356 129.314-288.356 288.831 0 159.518 129.101 288.832 288.356 288.832z" fill="url(#f)"/><path d="m413.5 824.387c226.927 0 410.887-183.96 410.887-410.887s-183.96-410.88705-410.887-410.88705-410.88705 183.96005-410.88705 410.88705 183.96005 410.887 410.88705 410.887zm0 2.613c228.37 0 413.5-185.13 413.5-413.5s-185.13-413.5-413.5-413.5-413.5 185.13-413.5 413.5 185.13 413.5 413.5 413.5z" fill="url(#g)"/><path d="m372.658 439.67c-5.592 0-10.669-.892-15.231-2.677-4.358-1.661-8.34-4.136-11.724-7.283-3.264-3.064-5.835-6.756-7.55-10.842-1.782-4.236-2.683-8.775-2.65-13.353v-2.614c0-5.398.873-10.328 2.618-14.792 1.627-4.277 4.113-8.195 7.312-11.527 3.134-3.225 6.922-5.783 11.124-7.511 4.437-1.813 9.207-2.723 14.019-2.677 5.232 0 9.896.838 13.991 2.514 3.96 1.588 7.511 4.008 10.399 7.086 2.924 3.189 5.129 6.937 6.473 11.005 1.524 4.586 2.272 9.383 2.214 14.203v7.706h-49.256c.323 2.298 1.061 4.523 2.181 6.571 2.147 3.934 5.723 6.95 10.03 8.459 2.303.801 4.734 1.199 7.18 1.176 1.839-.002 3.674-.179 5.478-.53 1.782-.34 3.523-.854 5.198-1.535 1.633-.665 3.182-1.508 4.619-2.514 1.421-.993 2.687-2.181 3.759-3.528l10.033 8.933c-1.534 2.044-3.29 3.921-5.237 5.599-2.002 1.638-4.211 3.02-6.573 4.112-2.693 1.256-5.516 2.231-8.42 2.909-3.271.76-6.624 1.133-9.987 1.11zm-2.213-58.581c-1.978-.023-3.941.342-5.77 1.075-1.738.716-3.303 1.776-4.597 3.113-1.37 1.427-2.492 3.063-3.322 4.841-.896 1.871-1.066 2.515-1.51 4.821h30.092c-.076-1.854-.461-3.685-1.14-5.419-.64-1.648-1.622-3.149-2.885-4.409-1.309-1.277-2.874-2.278-4.598-2.94-1.998-.752-4.128-1.12-6.27-1.082z" fill="url(#h)"/><path d="m438.067 436.993c4.56 1.785 9.636 2.677 15.227 2.677 3.364.021 6.719-.354 9.991-1.117 2.904-.677 5.726-1.652 8.418-2.908 2.362-1.093 4.57-2.475 6.571-4.112 1.947-1.678 3.702-3.556 5.236-5.6l-9.945-9.195c-1.096 1.435-2.392 2.716-3.851 3.804-1.436 1.006-2.985 1.85-4.617 2.514-1.675.681-3.416 1.195-5.197 1.536-1.8.347-3.631.522-5.466.522-2.445.023-4.876-.375-7.178-1.176-4.306-1.509-7.881-4.524-10.027-8.459-1.12-2.048-1.858-4.273-2.181-6.571h49.251v-7.705c.052-4.821-.701-9.619-2.231-14.204-1.345-4.068-3.549-7.816-6.472-11.005-2.887-3.078-6.437-5.498-10.396-7.086-4.092-1.676-8.755-2.514-13.987-2.514-4.811-.046-9.58.864-14.016 2.677-4.211 1.725-8.008 4.283-11.15 7.511-3.188 3.334-5.663 7.253-7.281 11.527-1.745 4.464-2.618 9.394-2.618 14.792v2.614c-.033 4.578.867 9.117 2.65 13.353 1.714 4.086 4.284 7.778 7.548 10.842 3.382 3.148 7.364 5.622 11.721 7.283zm7.246-54.829c1.829-.733 3.79-1.098 5.768-1.075 2.142-.038 4.271.33 6.269 1.082 1.723.663 3.288 1.663 4.596 2.94 1.264 1.26 2.246 2.761 2.884 4.409.68 1.734 1.065 3.565 1.141 5.419h-30.085c.444-2.306.614-2.95 1.51-4.821.829-1.778 1.951-3.414 3.321-4.841 1.294-1.337 2.859-2.397 4.596-3.113z" fill="url(#h)"/></g><path d="m552.917 366.392v43.545l-44.082-43.545h-11.013v57.328l15.991 15.951v-43.703l43.953 43.655h11.332v-57.383z" fill="url(#h)"/><path d="m257.364 382.413h40.831l-41.245 45.95v11.308h53.763l14.78-16.139h-40.979l41.11-45.491v-11.649h-53.807z" fill="url(#h)"/></svg>