<svg fill="none" height="60" viewBox="0 0 60 60" width="60" xmlns="http://www.w3.org/2000/svg" xmlns:xlink="http://www.w3.org/1999/xlink"><linearGradient id="a"><stop offset=".161458" stop-color="#7b35f1"/><stop offset="1" stop-color="#a672ff"/></linearGradient><linearGradient id="b" gradientUnits="userSpaceOnUse" x1="24.6413" x2="67.721" xlink:href="#a" y1="50.0949" y2="36.9183"/><linearGradient id="c" gradientUnits="userSpaceOnUse" x1="7.14128" x2="50.221" xlink:href="#a" y1="32.5949" y2="19.4183"/><g stroke-linecap="round" stroke-linejoin="round" stroke-width="6"><path d="m50 22.5h-22.5c-2.7614 0-5 2.2386-5 5v22.5c0 2.7614 2.2386 5 5 5h22.5c2.7614 0 5-2.2386 5-5v-22.5c0-2.7614-2.2386-5-5-5z" stroke="url(#b)"/><path d="m12.5 37.5h-2.5c-1.32608 0-2.59785-.5268-3.53553-1.4645-.93769-.9376-1.46447-2.2094-1.46447-3.5355v-22.5c0-1.32608.52678-2.59785 1.46447-3.53553.93768-.93769 2.20945-1.46447 3.53553-1.46447h22.5c1.3261 0 2.5979.52678 3.5355 1.46447.9377.93768 1.4645 2.20945 1.4645 3.53553v2.5" stroke="url(#c)"/></g></svg>