<svg fill="none" height="60" viewBox="0 0 60 60" width="60" xmlns="http://www.w3.org/2000/svg" xmlns:xlink="http://www.w3.org/1999/xlink"><linearGradient id="a" gradientUnits="userSpaceOnUse" x1="10.4648" x2="70.1138" y1="45.7084" y2="27.4638"><stop offset=".161458" stop-color="#7b35f1"/><stop offset="1" stop-color="#a672ff"/></linearGradient><path d="m52.5 28.7501c.0086 3.2996-.7623 6.5547-2.25 9.5-1.7639 3.5293-4.4756 6.4979-7.8314 8.5732-3.3557 2.0752-7.223 3.1752-11.1686 3.1768-3.2997.0086-6.5547-.7624-9.5-2.25l-14.25 4.75 4.75-14.25c-1.4877-2.9453-2.2586-6.2004-2.25-9.5.0015-3.9456 1.1015-7.8129 3.1768-11.1687 2.0753-3.3557 5.0438-6.0674 8.5732-7.83133 2.9453-1.48767 6.2003-2.2586 9.5-2.25h1.25c5.2109.28748 10.1326 2.4869 13.8229 6.17713 3.6902 3.6903 5.8896 8.612 6.1771 13.8229z" stroke="url(#a)" stroke-linecap="round" stroke-linejoin="round" stroke-width="6"/></svg>