<svg fill="none" height="37" viewBox="0 0 100 37" width="100" xmlns="http://www.w3.org/2000/svg" xmlns:xlink="http://www.w3.org/1999/xlink"><linearGradient id="a"><stop offset=".161458" stop-color="#7b35f1"/><stop offset="1" stop-color="#a672ff"/></linearGradient><linearGradient id="b" gradientUnits="userSpaceOnUse" x1=".165943" x2="3.55802" xlink:href="#a" y1="35.2581" y2="34.3211"/><linearGradient id="c" gradientUnits="userSpaceOnUse" x1="3.55623" x2="6.54666" xlink:href="#a" y1="35.2038" y2="34.4692"/><linearGradient id="d" gradientUnits="userSpaceOnUse" x1="6.81019" x2="9.70773" xlink:href="#a" y1="35.0475" y2="34.5631"/><linearGradient id="e" gradientUnits="userSpaceOnUse" x1="10.2236" x2="12.9582" xlink:href="#a" y1="35.0538" y2="34.618"/><linearGradient id="f" gradientUnits="userSpaceOnUse" x1="13.296" x2="16.2864" xlink:href="#a" y1="35.2038" y2="34.4692"/><linearGradient id="g" gradientUnits="userSpaceOnUse" x1="16.4713" x2="19.6751" xlink:href="#a" y1="35.2615" y2="34.4328"/><linearGradient id="h" gradientUnits="userSpaceOnUse" x1="22.9081" x2="26.1816" xlink:href="#a" y1="34.6828" y2="33.671"/><linearGradient id="i" gradientUnits="userSpaceOnUse" x1="29.3788" x2="32.7709" xlink:href="#a" y1="35.2537" y2="34.3167"/><linearGradient id="j" gradientUnits="userSpaceOnUse" x1="32.9188" x2="35.6698" xlink:href="#a" y1="35.0572" y2="34.6158"/><linearGradient id="k" gradientUnits="userSpaceOnUse" x1="36.1654" x2="38.9179" xlink:href="#a" y1="35.0571" y2="34.6153"/><linearGradient id="l" gradientUnits="userSpaceOnUse" x1="39.2732" x2="42.1738" xlink:href="#a" y1="35.0475" y2="34.562"/><linearGradient id="m" gradientUnits="userSpaceOnUse" x1="42.6833" x2="45.4118" xlink:href="#a" y1="35.0537" y2="34.62"/><linearGradient id="n" gradientUnits="userSpaceOnUse" x1="45.7586" x2="48.7436" xlink:href="#a" y1="35.2038" y2="34.4721"/><linearGradient id="o" gradientUnits="userSpaceOnUse" x1="48.9244" x2="52.1284" xlink:href="#a" y1="35.2615" y2="34.4327"/><linearGradient id="p" gradientUnits="userSpaceOnUse" x1="55.4176" x2="58.6214" xlink:href="#a" y1="35.2615" y2="34.4328"/><linearGradient id="q" gradientUnits="userSpaceOnUse" x1="58.6373" x2="61.908" xlink:href="#a" y1="35.2125" y2="34.2979"/><linearGradient id="r" gradientUnits="userSpaceOnUse" x1="61.9077" x2="65.1089" xlink:href="#a" y1="35.2615" y2="34.4342"/><linearGradient id="s" gradientUnits="userSpaceOnUse" x1="65.2292" x2="68.221" xlink:href="#a" y1="35.2038" y2="34.4685"/><linearGradient id="t" gradientUnits="userSpaceOnUse" x1="68.493" x2="71.2782" xlink:href="#a" y1="35.1005" y2="34.6621"/><linearGradient id="u" gradientUnits="userSpaceOnUse" x1="74.988" x2="78.2598" xlink:href="#a" y1="36.0975" y2="35.478"/><linearGradient id="v" gradientUnits="userSpaceOnUse" x1="78.2256" x2="81.1202" xlink:href="#a" y1="35.0475" y2="34.5641"/><linearGradient id="w" gradientUnits="userSpaceOnUse" x1="81.4114" x2="84.4128" xlink:href="#a" y1="35.2583" y2="34.537"/><linearGradient id="x" gradientUnits="userSpaceOnUse" x1="84.723" x2="87.5079" xlink:href="#a" y1="35.1004" y2="34.6621"/><linearGradient id="y" gradientUnits="userSpaceOnUse" x1="88.098" x2="90.8403" xlink:href="#a" y1="35.0576" y2="34.6191"/><linearGradient id="z" gradientUnits="userSpaceOnUse" x1="91.0514" x2="94.4379" xlink:href="#a" y1="35.2536" y2="34.3198"/><linearGradient id="A" gradientUnits="userSpaceOnUse" x1="94.2084" x2="97.6906" xlink:href="#a" y1="35.2076" y2="34.1902"/><linearGradient id="B" gradientUnits="userSpaceOnUse" x1="97.4562" x2="101.064" xlink:href="#a" y1="35.205" y2="34.1034"/><linearGradient id="C" gradientUnits="userSpaceOnUse" x1="78.6684" x2="109.045" xlink:href="#a" y1="19.8118" y2="10.7197"/><linearGradient id="D" gradientUnits="userSpaceOnUse" x1="52.439" x2="81.6912" xlink:href="#a" y1="19.8118" y2="11.4397"/><linearGradient id="E" gradientUnits="userSpaceOnUse" x1="26.6031" x2="55.8552" xlink:href="#a" y1="19.8118" y2="11.4397"/><linearGradient id="F" gradientUnits="userSpaceOnUse" x1="1.44948" x2="30.8908" xlink:href="#a" y1="19.8118" y2="11.3212"/><path d="m2.17636 35.3032c-.11599.1246-.25809.2227-.41637.2874-.15829.0646-.32896.0944-.5001.0872-.17095.0076-.341511-.0217-.49993-.0855-.158418-.0639-.30092-.161-.417673-.2847-.228192-.246-.342287-.5861-.342287-1.0203 0-.4341.114095-.7742.342287-1.0203.115915-.125.258132-.2234.416656-.2883.158526-.0649.329507-.0947.500947-.0874.17115-.008.34202.021.50069.0849.15867.064.30133.1613.41801.2854.22745.2468.34081.5869.34006 1.0202-.00074.4334-.11483.7739-.34229 1.0214zm-.91647-.0374c.1123.0056.22436-.0153.32691-.0608.10256-.0456.19266-.1147.26288-.2015.15135-.2098.22569-.4644.21073-.7217.0155-.2572-.05673-.512-.20514-.7239-.07114-.087-.16228-.156-.26583-.2012-.10356-.0453-.21654-.0654-.32955-.0588-.11212-.0063-.22413.0139-.326839.0587-.102722.0448-.193227.1131-.264087.1991-.150103.214-.222775.4718-.206263.7316-.015931.2557.056826.5091.206263.7185.070631.0864.161029.1551.263767.2002.102729.0453.214859.0657.327159.0598z" fill="url(#b)"/><path d="m4.60398 32.8912c.32631 0 .57383.0955.74255.2865.16836.1918.25309.4948.25309.9112v1.526h-.44598v-1.5832c0-.2535-.05686-.439-.17058-.5565-.05921-.0595-.1304-.1059-.20895-.1365-.07856-.0305-.16272-.0445-.24706-.0409-.44597 0-.66896.2413-.66896.7239v1.5932h-.44598v-2.6608h.42145v.3217c.16278-.2564.41958-.3846.77042-.3846z" fill="url(#c)"/><path d="m7.97148 35.2194h.75814v.3955h-1.96005v-.3955h.7537v-2.9683h-.64778l-.20069-.3956h1.29668z" fill="url(#d)"/><path d="m11.2881 35.2187h.7425v.3955h-1.9344v-.3955h.7437v-1.8731h-.7437v-.3956h1.1919zm-.223-2.7546c-.0367.0004-.073-.0065-.1069-.0204-.034-.0137-.0647-.0342-.0905-.06-.0264-.0255-.0473-.056-.0613-.0897-.014-.0338-.0208-.07-.02-.1065-.0009-.0374.0058-.0747.0198-.1095.0139-.0348.0349-.0665.0615-.0932.0253-.0266.0559-.0479.0899-.0622.0339-.0145.0706-.0218.1075-.0215.0379-.0008.0754.0062.1104.0206.035.0145.0664.036.0925.0631.0268.0266.0479.0583.0621.0931s.0212.0721.0204.1096c.0011.037-.0056.0737-.0199.1079-.0142.0342-.0355.065-.0626.0905-.0274.0263-.0598.0467-.0955.0602-.0357.0134-.0737.0195-.1119.018z" fill="url(#e)"/><path d="m14.3437 32.8912c.3271 0 .5746.0955.7426.2865.1683.1918.2531.4948.2531.9112v1.526h-.446v-1.5832c0-.2535-.0569-.439-.1706-.5565-.0592-.0595-.1304-.1059-.2089-.1365-.0786-.0305-.1628-.0445-.2471-.0409-.4459 0-.669.2413-.669.7239v1.5932h-.4459v-2.6608h.4214v.3217c.1628-.2564.4196-.3846.7704-.3846z" fill="url(#f)"/><path d="m18.674 34.1666c.0007.0975-.0045.195-.0157.2919h-1.8809c.0193.2221.1085.4325.2553.6017.067.0723.149.1294.2405.1675.0913.0381.19.0561.2891.0528.2299-.0002.4521-.0816.6267-.2292l.2531.292c-.243.2208-.562.3417-.892.3383-.1704.0063-.3401-.026-.4959-.0946-.1557-.0686-.2935-.1715-.4028-.301-.2295-.2829-.3482-.638-.3344-1.0004 0-.4341.1115-.7742.3344-1.0203.1131-.1233.2522-.2203.4076-.2843.1553-.064.323-.0934.4911-.086.1504-.0049.3003.0212.4399.0768.1395.0556.2658.1394.3707.2461.2088.2131.3133.5293.3133.9487zm-1.9077-.0937h1.4595c-.0067-.2813-.077-.4826-.2108-.6037-.126-.119-.294-.1846-.4682-.183-.1027-.0062-.2054.0093-.3016.0454-.0961.0361-.1834.092-.2559.164-.1401.1609-.2189.3651-.223.5773z" fill="url(#g)"/><path d="m24.2079 34.0464v1.0059h-.4593v-1.0059h-1.0035v-.432h1.0035v-1.0103h.4582v1.0103h1.0123v.432z" fill="url(#h)"/><path d="m31.3893 35.3023c-.2442.2385-.5737.3723-.9171.3723-.3433 0-.6728-.1338-.917-.3723-.2282-.246-.3423-.5862-.3423-1.0203s.1141-.7742.3423-1.0203c.2437-.2396.5732-.3746.917-.3757.3438-.001.6741.132.9193.3702.2275.2469.3408.587.3401 1.0203-.0008.4334-.1149.7753-.3423 1.0258zm-.9165-.0375c.1123.0057.2244-.0152.3269-.0607.1025-.0457.1927-.1147.2629-.2015.1514-.2099.2257-.4644.2107-.7217.0155-.2572-.0567-.5121-.2052-.7239-.0755-.0817-.1675-.1468-.27-.1914s-.2133-.0676-.3253-.0676-.2228.023-.3252.0676c-.1026.0446-.1945.1097-.2702.1914-.1501.214-.2228.4718-.2062.7316-.0148.2552.0587.5078.2084.7162.0709.0868.1617.1557.2649.2009.1031.0452.2156.0655.3283.0591z" fill="url(#i)"/><path d="m34.2132 32.3075c-.1139-.0131-.2285.0177-.32.0859-.0307.0331-.0542.0722-.0692.1146-.0149.0424-.021.0874-.0177.1322v.3129h.7804v.3956h-.7804v1.873h.7169v.3956h-1.7327v-.3956h.5698v-1.873h-.5698v-.3956h.5698v-.39c0-.2369.0735-.4043.2229-.5057.168-.1062.365-.159.5642-.151.2035-.002.4049.0405.5899.1245v.3857c-.1645-.0741-.3434-.1113-.5241-.1091z" fill="url(#j)"/><path d="m37.462 32.3075c-.1135-.0128-.2276.018-.3188.0859-.0308.0331-.0543.0721-.0693.1146-.0149.0423-.021.0874-.0177.1322v.3129h.7804v.3956h-.7804v1.873h.7157v.3956h-1.7348v-.3956h.5698v-1.873h-.5698v-.3956h.5698v-.39c0-.2369.0736-.4044.2229-.5057.1681-.1062.3649-.1588.5642-.151.2039-.002.4057.0405.5909.1245v.3857c-.164-.0739-.3426-.1112-.5229-.1091z" fill="url(#k)"/><path d="m40.4355 35.2194h.7592v.3955h-1.96v-.3955h.7526v-2.9683h-.6478l-.2018-.3956h1.2956z" fill="url(#l)"/><path d="m43.7469 35.2186h.7392v.3955h-1.9299v-.3955h.7425v-1.8731h-.7425v-.3956h1.1907zm-.223-2.7545c-.0742 0-.1455-.0291-.1979-.081-.0525-.0518-.082-.1222-.082-.1956-.0007-.0375.0063-.0748.0204-.1097.0142-.0347.0354-.0664.0622-.093.025-.0268.0556-.0482.0896-.0626s.0707-.0216.1077-.0212c.0378-.0005.0754.0066.1103.021s.0665.0357.0926.0628c.0264.0268.0472.0586.0612.0934.0139.0348.0208.0719.0202.1093.001.0369-.0057.0735-.0197.1077-.014.034-.035.065-.0617.0906-.0273.0261-.0597.0464-.0951.0599-.0355.0134-.0732.0197-.1112.0184z" fill="url(#m)"/><path d="m46.8022 32.8912c.3262 0 .5738.0955.7425.2865.1695.1918.2531.4948.2531.9112v1.526h-.446v-1.5832c0-.2535-.058-.4408-.1716-.5565-.0592-.0595-.1305-.1061-.209-.1366-.0786-.0306-.1628-.0444-.2471-.0408-.446 0-.6671.2413-.6634.7239v1.5932h-.446v-2.6608h.4215v.3217c.159-.2564.4144-.3846.766-.3846z" fill="url(#n)"/><path d="m51.1271 34.1665c.0013.0976-.0039.1951-.0156.292h-1.8809c.0198.2219.109.4322.2554.6017.0669.0722.1489.1293.2404.1674.0914.038.19.0561.2891.0529.2298-.0003.452-.0816.6266-.2292l.2531.292c-.2429.2209-.5619.3419-.892.3382-.1704.0064-.34-.0259-.4958-.0945s-.2936-.1715-.4028-.301c-.2296-.2829-.3483-.6381-.3345-1.0004 0-.4341.1115-.7743.3345-1.0203.1131-.1232.2523-.2203.4076-.2842.1552-.064.3229-.0934.491-.0861.1506-.0049.3006.0211.4404.0767s.2663.1395.3714.2462c.2088.213.3128.5293.3121.9486zm-1.9076-.0936h1.4606c-.0075-.2813-.0778-.4826-.2108-.6038-.1263-.1192-.2947-.1848-.4694-.1829-.1026-.006-.2053.0095-.3014.0456-.0962.0361-.1834.0919-.2561.1637-.14.161-.2188.3652-.2229.5774z" fill="url(#o)"/><path d="m57.6203 34.1666c.0007.0975-.0045.195-.0156.2919h-1.8809c.0192.2221.1085.4325.2553.6017.0669.0723.1489.1294.2403.1675s.1901.0561.2893.0528c.2298-.0002.452-.0816.6266-.2292l.2531.292c-.243.2208-.562.3417-.892.3383-.1704.0063-.3401-.026-.4958-.0946-.1558-.0686-.2936-.1715-.4028-.301-.2296-.2829-.3484-.638-.3345-1.0004 0-.4341.1115-.7742.3345-1.0203.113-.1233.2521-.2203.4075-.2843.1553-.064.323-.0934.4911-.086.1504-.0049.3003.0212.4398.0768.1396.0556.266.1394.3708.2461.2088.2131.3133.5293.3133.9487zm-1.9077-.0937h1.4595c-.0067-.2813-.0769-.4826-.2108-.6037-.126-.119-.294-.1846-.4683-.183-.1026-.0062-.2054.0093-.3014.0454-.0962.0361-.1834.092-.256.164-.14.1609-.2189.3651-.223.5773z" fill="url(#p)"/><path d="m59.5039 35.6141-1.0268-2.6609h.4682l.669 1.7861c.038.0856.0679.1745.0891.2656.0146-.0519.0436-.14.0904-.2656l.6578-1.7861h.4582l-1.0358 2.6609z" fill="url(#q)"/><path d="m64.1083 34.1665c.001.0977-.0046.1952-.0167.292h-1.8787c.0202.2218.1094.4319.2553.6017.067.0721.1491.1291.2405.1672.0914.038.19.0561.2891.0531.2302-.0003.4526-.0816.6277-.2292l.2531.292c-.243.2207-.562.3417-.892.3382-.1704.0064-.34-.0259-.4958-.0945s-.2936-.1715-.4028-.301c-.2296-.2829-.3483-.6381-.3345-1.0004 0-.4341.1115-.7743.3345-1.0203.1131-.1232.2522-.2203.4075-.2842.1553-.064.323-.0934.4911-.0861.1506-.0049.3006.0211.4404.0767.1397.0556.2662.1395.3713.2462.2066.213.31.5293.31.9486zm-1.9077-.0936h1.4617c-.0067-.2813-.077-.4826-.2107-.6038-.1264-.1192-.2948-.1848-.4695-.1829-.1026-.0063-.2054.0091-.3015.0453-.0961.0361-.1834.092-.2559.164-.1392.1612-.2169.3655-.2196.5774z" fill="url(#r)"/><path d="m66.278 32.8912c.3263 0 .5738.0955.7425.2865.1695.1918.2531.4948.2531.9112v1.526h-.4459v-1.5832c0-.2535-.0581-.4408-.1718-.5565-.0591-.0595-.1303-.1061-.2089-.1366-.0785-.0306-.1627-.0444-.247-.0408-.446 0-.6691.2413-.6691.7239v1.5932h-.4459v-2.6608h.4214v.3217c.1636-.2564.4208-.3846.7716-.3846z" fill="url(#s)"/><path d="m69.6644 35.677c-.4571 0-.6853-.2222-.6846-.6666v-1.6615h-.6165v-.3955h.6165v-.8815l.446-.2203v1.1018h.9065v.3955h-.9065v1.5205c-.0075.1062.0216.2118.0826.2997.0404.0384.089.0675.1422.0851.0533.0176.1097.0231.1655.0162.1753-.0029.3465-.0532.495-.1454l-.0524.4319c-.1854.0867-.3893.1279-.5943.1201z" fill="url(#t)"/><path d="m74.834 36.6675v-3.7131h.446v.2292c.0946-.0939.2072-.1681.3313-.2183.1241-.0501.2571-.0752.3911-.0737.1624-.0069.3242.0234.4727.0886.1486.0652.2799.1635.3836.2871.2085.249.3133.5884.3133 1.0148s-.1115.7713-.321 1.0236c-.1014.1203-.229.2163-.3732.2808-.1442.0644-.3014.0958-.4597.0916-.1389.0058-.2773-.0194-.4051-.0735-.1277-.0542-.2416-.136-.333-.2394v1.0886zm1.1283-1.4015c.1069.0055.2135-.0148.3106-.0591.0972-.0444.1818-.1114.2469-.1954.1313-.2191.2007-.4692.2007-.7239s-.0694-.5048-.2007-.7239c-.0653-.0866-.1511-.1561-.2497-.2024-.0988-.0463-.2075-.0679-.3167-.0631-.135-.0078-.2694.0224-.3878.0869-.1183.0645-.2158.1609-.2812.2778v1.2439c.0743.1105.175.2012.2933.2639s.2504.0954.3846.0953z" fill="url(#u)"/><path d="m79.3837 35.2194h.7593v.3955h-1.9601v-.3955h.7548v-2.9683h-.6478l-.1996-.3956h1.2934z" fill="url(#v)"/><path d="m82.2331 35.6778c-.2541.0125-.5042-.0701-.6999-.2314-.09-.0845-.1604-.1875-.2059-.3017-.0457-.1142-.0656-.2368-.0583-.3594-.0089-.1258.0136-.2519.0655-.3672.0519-.1152.1316-.2161.2321-.2939.2137-.1523.4731-.2299.7362-.2204.2524-.0032.5024.0559.727.172v-.205c0-.3951-.1901-.5931-.5705-.5939-.3057.009-.6022.1067-.8525.281l-.1316-.3691c.3068-.1936.6628-.2967 1.0268-.2975.1106-.0008.2204.0126.327.0396.1082.028.2107.0739.3033.1355.1074.0723.1901.1748.2369.2943.0623.1518.0918.3146.0877.4781v1.7762h-.4271v-.2457c-.2147.2012-.5008.3119-.7967.3085zm.0582-.3857c.1426-.0019.2836-.0356.4115-.0987.1278-.0632.2393-.1541.327-.266v-.4583c-.2016-.1224-.4328-.1873-.6697-.1874-.1672-.0059-.3319.0387-.4735.1279-.0615.0405-.1115.0961-.1446.1614-.0332.0653-.0487.138-.0449.211-.0027.0691.0099.1381.0371.2018.0272.0638.0682.1209.1201.1673.1214.0983.2755.1486.4329.141z" fill="url(#w)"/><path d="m85.8957 35.677c-.4574 0-.686-.2222-.686-.6666v-1.6615h-.6164v-.3955h.6164v-.8815l.4459-.2203v1.1018h.9065v.3955h-.9065v1.5205c-.0082.1062.0204.2118.0811.2997.041.0384.0902.0675.1434.085.0533.0175.1099.0231.1656.0163.1754-.0029.3467-.0532.4951-.1454l-.0525.4319c-.1852.0865-.3885.1277-.5926.1201z" fill="url(#x)"/><path d="m89.3973 32.3079c-.114-.0128-.2279.018-.3189.0859-.0311.0331-.0541.0721-.0697.1146-.0147.0424-.0204.0874-.0172.1322v.3129h.7804v.3956h-.7804v1.873h.7164v.3956h-1.7377v-.3956h.5689v-1.873h-.5689v-.3956h.5689v-.39c0-.2369.0729-.4043.2229-.5057.1656-.105.3599-.1577.5574-.151.2033-.0021.4057.0404.591.1245v.3857c-.1615-.0725-.3361-.1098-.5131-.1091z" fill="url(#y)"/><path d="m93.062 35.3023c-.2443.2384-.5738.3722-.9164.3722-.3435 0-.673-.1338-.9172-.3722-.2279-.246-.3427-.5862-.3427-1.0203-.0008-.4341.1132-.7742.3427-1.0203.2442-.2396.5737-.3746.9172-.3757.3442-.001.6746.132.9197.3702.2229.2469.3344.587.3344 1.0203 0 .4334-.1131.7753-.3377 1.0258zm-.9164-.0375c.1123.0057.2238-.0152.3262-.0607.1033-.0457.1926-.1147.2631-.2015.1517-.2099.2254-.4644.2107-.7217.0156-.2572-.0566-.5121-.2049-.7239-.0754-.0817-.1681-.1468-.2705-.1914-.1025-.0446-.2131-.0676-.3246-.0676-.1123 0-.223.023-.3254.0676-.1025.0446-.1951.1097-.2705.1914-.1492.2141-.2222.4719-.2049.7316-.0148.2558.0582.509.2073.7184.0713.0863.1623.1547.2648.1995.1033.0448.2156.0649.3287.0583z" fill="url(#z)"/><path d="m96.0547 32.8915c.2041-.0102.4073.0331.5893.1256v.92h-.4459v-.6038c-.0352 0-.0902 0-.1639 0-.2459-.008-.4894.0614-.6935.1984-.0901.0618-.1639.1454-.2131.243-.0492.0974-.0721.2057-.0672.3145v1.1348h.7803v.3956h-1.8041v-.3956h.5574v-1.8731h-.5574v-.3955h.9902v.4638c.1-.1679.25-.3017.4287-.3833.186-.0933.391-.1427.5992-.1444z" fill="url(#A)"/><path d="m99.3392 32.8916c.095-.0071.1901.0093.2778.0478.0869.0385.1623.0978.2205.1726.1074.1469.1607.3812.1607.703v1.8015h-.4361v-1.6307c.009-.1761-.0123-.3524-.0631-.5212-.0197-.0499-.0541-.0922-.1-.1204-.0459-.0283-.1-.0409-.1533-.036-.0623-.0006-.1238.0175-.1754.0519s-.0918.0836-.1148.1408c-.0688.1611-.1016.3353-.0942.5102v1.6042h-.4377v-1.678c.0065-.1576-.014-.3151-.0599-.4661-.0155-.0502-.0475-.0938-.0918-.1236-.0434-.0297-.0959-.0441-.1491-.0406-.064.0002-.1263.0188-.1796.0536-.0532.0349-.095.0845-.1204.1425-.0763.158-.1123.332-.105.5069v1.6043h-.4409v-2.6599h.4114v.3438c.1041-.271.2787-.4066.5213-.4066.123-.0026.2427.0403.3345.1201.0893.0764.1549.1755.191.2865.1582-.271.3532-.4066.6041-.4066z" fill="url(#B)"/><path d="m94.8141 13.8657v-13.8657l5.1833 5.04622v18.27198h-3.6302l-14.0804-13.90084v13.91604l-5.1227-5.0791v-18.2543h3.528z" fill="url(#C)"/><path d="m62.9005 23.3331c-1.7909 0-3.417-.2841-4.878-.8523-1.3958-.5291-2.6713-1.3169-3.7549-2.3192-1.0454-.9755-1.8689-2.1512-2.418-3.4523-.571-1.3489-.8594-2.7941-.8488-4.2518v-.8325c0-1.71869.2795-3.28862.8385-4.70992.5183-1.36107 1.3113-2.60873 2.3327-3.67036 1.0065-1.02813 2.2228-1.84262 3.5717-2.391839 1.4211-.577103 2.949-.8671476 4.4901-.85234141 1.6764 0 3.1701.26686141 4.4809.80058341 1.2684.505527 2.4057 1.276027 3.3305 2.256397.9362 1.01514 1.6425 2.20878 2.0732 3.50406.4901 1.46008.7315 2.9876.7146 4.52272v2.4535h-15.7777c.1035.7319.34 1.4403.6986 2.0923.6877 1.2529 1.8329 2.2132 3.2123 2.6935.7377.2552 1.5162.3819 2.2996.3745.5879.0001 1.1745-.0556 1.7511-.1663.5706-.1083 1.1283-.2721 1.6648-.489.5229-.2115 1.0192-.4801 1.4792-.8005.4672-.3464.8824-.7541 1.2335-1.2113l3.186 2.9281c-.4913.6508-1.0536 1.2486-1.6772 1.7829-.6412.5214-1.3486.9614-2.1051 1.3093-.8626.4-1.7665.7104-2.6968.9261-1.0481.2431-2.1229.3625-3.2008.3557zm-.7089-18.65349c-.6335-.00732-1.262.10916-1.8478.34248-.5565.22805-1.0579.56555-1.4724.99109-.4389.45456-.7982.97529-1.0639 1.5417-.2868.59576-.3414.80059-.4837 1.5351h9.7983-.1605c-.0244-.59055-.1477-1.17336-.3652-1.72561-.2047-.52467-.5193-1.00269-.924-1.40405-.4192-.40649-.9205-.72512-1.4724-.93603-.6402-.23946-1.3222-.35652-2.0084-.34468z" fill="url(#D)"/><path d="m37.0676 23.333c-1.7914 0-3.4178-.284-4.8793-.8523-1.396-.529-2.6719-1.3169-3.7558-2.3191-1.0457-.9755-1.8694-2.1513-2.4186-3.4523-.5711-1.3489-.8597-2.7942-.8491-4.2519v-.8324c0-1.71871.2796-3.28864.8388-4.70994.5212-1.36177 1.3175-2.60949 2.3424-3.67035 1.0041-1.02712 2.2174-1.84156 3.5635-2.391831 1.4214-.577101 2.9497-.8671455 4.4912-.85233941 1.6761 0 3.1701.26686141 4.482.80058241 1.2687.505528 2.4063 1.276018 3.3314 2.256388.9365 1.01514 1.6429 2.20878 2.0737 3.50406.4883 1.46038.7278 2.98787.7091 4.52273v2.4534h-15.7794c.1035.7319.3401 1.4403.6989 2.0924.6878 1.2529 1.8332 2.2132 3.2129 2.6935.738.2551 1.5167.3819 2.3003.3745.5893-.0005 1.1771-.0569 1.755-.1686.5707-.1082 1.1286-.272 1.6651-.4889.5231-.2116 1.0195-.4801 1.4796-.8006.4554-.3161.861-.6944 1.2042-1.1232l3.2142 2.8444c-.4915.6509-1.054 1.2486-1.6777 1.7829-.6413.5214-1.3489.9615-2.1056 1.3094-.8628.3999-1.767.7104-2.6974.9261-1.0478.2421-2.1221.3608-3.1994.3534zm-.709-18.6534c-.6337-.00732-1.2624.10916-1.8484.34248-.5566.22805-1.0582.56555-1.4728.99109-.4389.45456-.7983.97528-1.0642 1.54169-.2868.59576-.3414.80059-.4836 1.5351h9.8006-.1605c-.0243-.59055-.1478-1.17335-.3654-1.7256-.2047-.52467-.5193-1.00269-.9241-1.40405-.4194-.40649-.9207-.72512-1.4728-.93603-.6402-.23946-1.3225-.35652-2.0088-.34468z" fill="url(#E)"/><path d="m13.2131 5.10132h-13.080649l4.630259-5.10132h17.23729v3.70922l-13.16995 14.48518h13.12805l-4.7351 5.139h-17.223v-3.6007z" fill="url(#F)"/></svg>