<svg fill="none" height="25" viewBox="0 0 25 25" width="25" xmlns="http://www.w3.org/2000/svg"><g fill="#fff"><path d="m12.5002 15.3449 8.3333-8.33331v-1.17834h-1.1783l-7.155 7.15505-2.98837-2.98838h-1.17833v1.17838z"/><path d="m18.9499 10.5459c.198.6326.3008 1.2912.305 1.9542.0048 1.5315-.5095 3.0195-1.4589 4.2213-.9495 1.2018-2.278 2.0465-3.7691 2.3963-1.4911.3499-3.0567.1842-4.44156-.4699-1.38487-.654-2.5073-1.758-3.18425-3.1319-.67695-1.3738-.86849-2.9365-.54339-4.4331.3251-1.49671 1.14766-2.83909 2.33355-3.8083 1.18589-.9692 2.66515-1.50806 4.19655-1.52869 1.5315-.02063 3.0247.47817 4.2363 1.41507l1.1208-1.12083c-1.5826-1.28586-3.5807-1.94893-5.6181-1.8644-2.0375.08452-3.97375.91081-5.44446 2.32335-1.47072 1.41254-2.37444 3.31392-2.54108 5.3463-.16665 2.0323.41528 4.0555 1.63626 5.6888 1.22097 1.6332 2.9968 2.7639 4.99328 3.1792 1.9964.4152 4.0758.0865 5.8468-.9244 1.771-1.0108 3.1114-2.6342 3.769-4.5644.6577-1.9302.5871-4.0343-.1983-5.91612z"/></g></svg>