<svg fill="none" height="32" viewBox="0 0 32 32" width="32" xmlns="http://www.w3.org/2000/svg"><g stroke="#a672ff" stroke-linecap="round" stroke-linejoin="round" stroke-width="2"><path d="m15.9998 29.3332c7.3638 0 13.3334-5.9696 13.3334-13.3334 0-7.36376-5.9696-13.3333-13.3334-13.3333-7.36376 0-13.3333 5.96954-13.3333 13.3333 0 7.3638 5.96954 13.3334 13.3333 13.3334z"/><path d="m12.1201 11.9998c.3135-.8911.9322-1.6425 1.7466-2.12117.8144-.47864 1.7719-.6536 2.703-.4939.931.1597 1.7755.64377 2.3839 1.36647.6083.7226.9413 1.6373.9398 2.5819 0 2.6667-3.9999 4-3.9999 4"/><path d="m16 22.6665h.0133"/></g></svg>